<?xml version="1.0" standalone="no"?><!DOCTYPE svg PUBLIC "-//W3C//DTD SVG 1.1//EN" "http://www.w3.org/Graphics/SVG/1.1/DTD/svg11.dtd"><svg t="1535993208908" class="icon" style="" viewBox="0 0 1024 1024" version="1.1" xmlns="http://www.w3.org/2000/svg" p-id="2135" xmlns:xlink="http://www.w3.org/1999/xlink" width="24" height="24"><defs><style type="text/css"></style></defs><path d="M804.571011 0a36.571408 36.571408 0 0 1 36.571407 36.278836V146.285631h73.142816A36.571408 36.571408 0 0 1 950.856641 182.857038V219.428446H73.142857v-146.285631A73.142815 73.142815 0 0 1 145.993101 0z m-36.571408 73.142815h-585.142523a36.571408 36.571408 0 0 0 0 73.142816h585.142523zM73.142857 219.428446h877.713784v731.428154a73.142815 73.142815 0 0 1-73.435386 73.142815h-731.428154A73.142815 73.142815 0 0 1 73.142857 951.149171z m73.142815 0v695.149317a36.571408 36.571408 0 0 0 36.278837 36.278837h658.870481a36.571408 36.571408 0 0 0 36.278836-36.278837V219.428446z m543.597404 254.536997H290.230733a35.986265 35.986265 0 0 1 0-71.679959h399.359772a35.986265 35.986265 0 0 1 0 71.679959z m-175.542757 146.285631H292.571303a35.986265 35.986265 0 0 1 0-71.679959h222.061588a35.986265 35.986265 0 0 1 0 71.679959z" p-id="2136" fill="#dedae0"></path></svg>